<?xml version="1.0" encoding="UTF-8"?> <svg xmlns="http://www.w3.org/2000/svg" width="190" height="40" viewBox="0 0 190 40" fill="none"> <path d="M40.9126 20.1868V2.48213C40.8932 0.988974 41.9048 0 43.4028 0C44.9008 0 45.8929 0.988974 45.8929 2.48213L45.8735 19.5468C45.8735 28.0016 49.4142 31.5697 58.013 31.5697L64.2772 31.5503C65.7752 31.5697 66.7674 32.5393 66.7674 34.0324C66.7674 35.5256 65.7752 36.534 64.2772 36.5146H57.2931C46.8073 36.534 40.8932 30.6389 40.9126 20.1868ZM125.266 0.290875H128.885C139.371 0.290875 145.227 6.14716 145.246 16.6187V34.3621C145.227 35.8552 144.254 36.8248 142.756 36.8248C141.258 36.8248 140.246 35.8552 140.266 34.3621L140.227 17.278C140.246 8.80383 136.725 5.29393 128.146 5.29393H126.006C117.426 5.29393 113.866 8.78444 113.866 17.278L113.886 34.3427C113.866 35.8552 112.893 36.8248 111.396 36.8248C109.898 36.8248 108.886 35.8552 108.905 34.3427V16.6187C108.886 6.14716 114.781 0.290875 125.266 0.290875ZM16.3613 0.290875H19.9798C29.9404 0.290875 36.3214 5.5848 36.3214 15.5521C36.3214 25.4419 29.9404 30.8328 19.9798 30.8134H12.8206C11.3032 30.8328 10.3305 29.8244 10.3305 28.3313C10.3305 26.8381 11.3032 25.8685 12.8206 25.8491L19.2406 25.8685C27.2946 25.8685 31.3217 22.824 31.3217 15.5521C31.3217 8.28025 27.2946 5.29393 19.2406 5.29393H17.1006C8.52125 5.29393 4.96112 8.78444 4.96112 17.278L4.98057 34.3427C4.96112 35.8552 3.9884 36.8248 2.49042 36.8248C0.992445 36.8248 -0.0191785 35.8552 0.000275755 34.3427V16.6187C-0.0191785 6.14716 5.87547 0.290875 16.3613 0.290875ZM166.587 0.290875H170.206C180.692 0.290875 186.567 6.14716 186.567 16.6187V25.1122C186.547 26.6248 185.575 27.6332 184.077 27.6332C182.579 27.6332 181.567 26.6248 181.587 25.1122L181.548 17.2586C181.567 8.78444 178.046 5.27454 169.467 5.27454H167.327C158.747 5.27454 155.187 8.74565 155.187 17.2586V19.5274C155.187 28.021 158.728 31.5503 167.327 31.5503H181.12C184.68 31.5503 185.925 32.4229 187.831 34.3233L188.979 35.4674C190.224 36.7085 190.341 38.221 189.271 39.2682C188.201 40.3347 186.742 40.2765 185.302 38.8222L184.038 37.5617C183.415 36.9606 182.851 36.4952 181.295 36.4758H166.568C156.101 36.4952 150.207 30.6195 150.207 20.148V16.5993C150.226 6.14717 156.101 0.290875 166.587 0.290875ZM72.5453 17.278V19.5468C72.5453 28.0404 76.086 31.5697 84.6848 31.5697H86.8247C95.4041 31.5697 98.9059 28.0404 98.9059 19.5468V17.278C98.9059 8.78444 95.4041 5.29393 86.8247 5.29393H84.6848C76.1054 5.29393 72.5453 8.76505 72.5453 17.278ZM83.9455 0.290875H87.564C98.0499 0.290875 103.925 6.14716 103.925 16.6187V20.1674C103.925 30.6389 98.0499 36.4952 87.564 36.4952H83.9455C73.4597 36.4952 67.5845 30.6389 67.5845 20.1674V16.6187C67.5845 6.14716 73.4791 0.290875 83.9455 0.290875Z" fill="white"></path> </svg> 