<?xml version="1.0" encoding="UTF-8"?> <svg xmlns="http://www.w3.org/2000/svg" width="324" height="172" viewBox="0 0 324 172" fill="none"> <rect x="4" y="4" width="316" height="164" rx="46" stroke="black" stroke-width="8"></rect> <path d="M98.1975 121V103.736H59.8215L57.7415 97.808L98.9255 47.68H106.102V96.872H117.438V103.736H106.102V121H98.1975ZM67.6215 96.872H98.1975V59.328L67.6215 96.872ZM182.427 111.328C176.742 118.608 169.323 122.248 160.171 122.248C151.019 122.248 143.6 118.643 137.915 111.432C132.299 104.152 129.491 95.208 129.491 84.6C129.491 74.1307 132.334 65.256 138.019 57.976C143.774 50.6267 151.227 46.952 160.379 46.952C169.531 46.952 176.915 50.592 182.531 57.872C188.147 65.0827 190.955 73.992 190.955 84.6C190.955 95.0693 188.112 103.979 182.427 111.328ZM144.259 105.92C148.419 111.813 153.792 114.76 160.379 114.76C166.966 114.76 172.27 111.848 176.291 106.024C180.382 100.131 182.427 92.9893 182.427 84.6C182.427 76.3493 180.347 69.2773 176.187 63.384C172.096 57.4213 166.758 54.44 160.171 54.44C153.584 54.44 148.246 57.3867 144.155 63.28C140.064 69.104 138.019 76.2107 138.019 84.6C138.019 92.8507 140.099 99.9573 144.259 105.92ZM256.771 111.328C251.085 118.608 243.667 122.248 234.515 122.248C225.363 122.248 217.944 118.643 212.259 111.432C206.643 104.152 203.835 95.208 203.835 84.6C203.835 74.1307 206.677 65.256 212.363 57.976C218.117 50.6267 225.571 46.952 234.723 46.952C243.875 46.952 251.259 50.592 256.875 57.872C262.491 65.0827 265.299 73.992 265.299 84.6C265.299 95.0693 262.456 103.979 256.771 111.328ZM218.603 105.92C222.763 111.813 228.136 114.76 234.723 114.76C241.309 114.76 246.613 111.848 250.635 106.024C254.725 100.131 256.771 92.9893 256.771 84.6C256.771 76.3493 254.691 69.2773 250.531 63.384C246.44 57.4213 241.101 54.44 234.515 54.44C227.928 54.44 222.589 57.3867 218.499 63.28C214.408 69.104 212.363 76.2107 212.363 84.6C212.363 92.8507 214.443 99.9573 218.603 105.92Z" fill="black"></path> </svg> 