<?xml version="1.0" encoding="UTF-8"?> <svg xmlns="http://www.w3.org/2000/svg" width="324" height="172" viewBox="0 0 324 172" fill="none"> <rect x="4" y="4" width="316" height="164" rx="46" stroke="black" stroke-width="8"></rect> <path d="M87.8284 122.248C78.1911 122.248 69.5244 118.4 61.8284 110.704L67.2364 104.776C74.1004 111.432 80.9991 114.76 87.9324 114.76C93.1324 114.76 97.3617 113.235 100.62 110.184C103.879 107.133 105.508 103.216 105.508 98.432C105.508 93.9253 103.81 90.2507 100.412 87.408C97.0844 84.5653 92.7511 83.144 87.4124 83.144C82.4204 83.144 77.3244 84.5307 72.1244 87.304L66.6124 83.664L68.6924 48.2H110.604V55.792H75.8684L74.3084 79.088C79.2311 76.9387 84.0151 75.864 88.6604 75.864C95.9404 75.864 101.938 77.9093 106.652 82C111.436 86.0213 113.828 91.464 113.828 98.328C113.828 105.4 111.402 111.155 106.548 115.592C101.695 120.029 95.4551 122.248 87.8284 122.248ZM179.38 111.328C173.695 118.608 166.276 122.248 157.124 122.248C147.972 122.248 140.553 118.643 134.868 111.432C129.252 104.152 126.444 95.208 126.444 84.6C126.444 74.1307 129.287 65.256 134.972 57.976C140.727 50.6267 148.18 46.952 157.332 46.952C166.484 46.952 173.868 50.592 179.484 57.872C185.1 65.0827 187.908 73.992 187.908 84.6C187.908 95.0693 185.065 103.979 179.38 111.328ZM141.212 105.92C145.372 111.813 150.745 114.76 157.332 114.76C163.919 114.76 169.223 111.848 173.244 106.024C177.335 100.131 179.38 92.9893 179.38 84.6C179.38 76.3493 177.3 69.2773 173.14 63.384C169.049 57.4213 163.711 54.44 157.124 54.44C150.537 54.44 145.199 57.3867 141.108 63.28C137.017 69.104 134.972 76.2107 134.972 84.6C134.972 92.8507 137.052 99.9573 141.212 105.92ZM253.724 111.328C248.039 118.608 240.62 122.248 231.468 122.248C222.316 122.248 214.897 118.643 209.212 111.432C203.596 104.152 200.788 95.208 200.788 84.6C200.788 74.1307 203.631 65.256 209.316 57.976C215.071 50.6267 222.524 46.952 231.676 46.952C240.828 46.952 248.212 50.592 253.828 57.872C259.444 65.0827 262.252 73.992 262.252 84.6C262.252 95.0693 259.409 103.979 253.724 111.328ZM215.556 105.92C219.716 111.813 225.089 114.76 231.676 114.76C238.263 114.76 243.567 111.848 247.588 106.024C251.679 100.131 253.724 92.9893 253.724 84.6C253.724 76.3493 251.644 69.2773 247.484 63.384C243.393 57.4213 238.055 54.44 231.468 54.44C224.881 54.44 219.543 57.3867 215.452 63.28C211.361 69.104 209.316 76.2107 209.316 84.6C209.316 92.8507 211.396 99.9573 215.556 105.92Z" fill="black"></path> </svg> 