<?xml version="1.0" encoding="UTF-8"?> <svg xmlns="http://www.w3.org/2000/svg" width="152" height="33" viewBox="0 0 152 33" fill="none"> <path d="M22.2806 16.6491L22.2787 6.92347C22.2733 6.10719 22.8154 5.56055 23.6351 5.56055C24.4548 5.56055 24.986 6.10902 24.9915 6.92347L24.9842 16.2933C24.986 20.9378 26.9083 22.8969 31.5944 22.8969L35.0008 22.8877C35.815 22.8969 36.3572 23.427 36.3572 24.2507C36.3572 25.0743 35.8131 25.6227 35.0008 25.6136L31.1928 25.6117C25.4953 25.6264 22.2733 22.387 22.2806 16.6491ZM68.2326 5.73114H70.1987C75.9071 5.73114 79.1036 8.94858 79.1127 14.6974V24.4359C79.1036 25.2559 78.5687 25.7878 77.7527 25.7878C76.9367 25.7878 76.389 25.2559 76.3963 24.4359L76.3799 15.0514C76.3908 10.3977 74.4759 8.47532 69.7989 8.47532H68.636C63.959 8.47532 62.0276 10.3977 62.0258 15.0514L62.0331 24.4231C62.0276 25.2559 61.4964 25.786 60.6767 25.786C59.8571 25.786 59.3131 25.254 59.3204 24.4231L59.3222 14.6974C59.3113 8.94858 62.5242 5.73114 68.2326 5.73114ZM8.91409 5.73114H10.8802C16.3075 5.73114 19.7851 8.63674 19.7814 14.1104C19.7851 19.5456 16.3056 22.5007 10.8802 22.4897L6.98269 22.4915C6.15756 22.5007 5.62633 21.9522 5.62633 21.1286C5.62633 20.305 6.15756 19.773 6.98269 19.7657L10.4786 19.7749C14.8653 19.7749 17.0596 18.1075 17.0596 14.1123C17.0596 10.1207 14.8653 8.47715 10.4786 8.47715H9.31571C4.63872 8.47715 2.70732 10.3995 2.70549 15.0533L2.7128 24.4249C2.70732 25.2577 2.17609 25.7878 1.35643 25.7878C0.536776 25.7878 -0.00722947 25.2559 7.26175e-05 24.4249L0.00189801 14.6992C-0.0072296 8.94858 3.20569 5.73114 8.91409 5.73114ZM90.7376 5.73114H92.7037C98.4121 5.73114 101.618 8.94307 101.618 14.6974V19.364C101.609 20.1986 101.079 20.7489 100.26 20.7489C99.4399 20.7489 98.8959 20.1986 98.9032 19.364L98.8849 15.0514C98.8958 10.3977 96.9809 8.47532 92.3039 8.47532H91.141C86.4641 8.47532 84.5308 10.3849 84.5308 15.0514V16.2933C84.5308 20.9598 86.4549 22.8969 91.141 22.8969H98.6585C100.597 22.8969 101.271 23.3793 102.311 24.4231L102.939 25.0541C103.617 25.7383 103.679 26.5619 103.1 27.1434C102.523 27.7231 101.724 27.6974 100.939 26.8994L100.252 26.2116C99.9163 25.8796 99.6042 25.6246 98.7608 25.6117L90.7413 25.6136C85.0438 25.6246 81.8272 22.4016 81.8272 16.6473V14.6974C81.8254 8.94491 85.0292 5.73114 90.7376 5.73114ZM39.519 15.0533V16.2951C39.519 20.9617 41.4504 22.8988 46.1292 22.8988H47.292C51.969 22.8988 53.873 20.9617 53.873 16.2951V15.0533C53.873 10.3867 51.969 8.47715 47.292 8.47715H46.1292C41.4504 8.47715 39.519 10.3849 39.519 15.0533ZM45.7257 5.73114H47.6918C53.4002 5.73114 56.6058 8.94307 56.6058 14.6974V16.6473C56.6058 22.4016 53.402 25.6136 47.6918 25.6136H45.7257C40.0173 25.6136 36.8117 22.4016 36.8117 16.6473V14.6974C36.8135 8.94491 40.0173 5.73114 45.7257 5.73114Z" fill="#323232"></path> <path fill-rule="evenodd" clip-rule="evenodd" d="M140.822 1.69663H128.945C124.26 1.69663 120.462 5.49466 120.462 10.1798V22.0562C120.462 26.7413 124.26 30.5393 128.945 30.5393H140.822C145.507 30.5393 149.305 26.7413 149.305 22.0562V10.1798C149.305 5.49466 145.507 1.69663 140.822 1.69663ZM128.945 0C123.323 0 118.766 4.55764 118.766 10.1798V22.0562C118.766 27.6783 123.323 32.236 128.945 32.236H140.822C146.444 32.236 151.002 27.6783 151.002 22.0562V10.1798C151.002 4.55764 146.444 0 140.822 0H128.945Z" fill="#323232"></path> <path d="M141.674 23.7516H138.151L134.772 18.2545L131.392 23.7516H128.094L132.919 16.2592L128.399 9.21484H131.799L134.935 14.4472L138.009 9.21484H141.327L136.767 16.4221L141.674 23.7516Z" fill="#323232"></path> </svg> 