<?xml version="1.0" encoding="UTF-8"?> <svg xmlns="http://www.w3.org/2000/svg" width="251" height="54" viewBox="0 0 251 54" fill="none"> <path d="M37.6745 27.1683L37.6714 10.356C37.6621 8.94495 38.5789 8 39.9649 8C41.3509 8 42.2491 8.94812 42.2584 10.356L42.246 26.5532C42.2491 34.582 45.4995 37.9685 53.4233 37.9685L59.1833 37.9527C60.56 37.9685 61.4768 38.8849 61.4768 40.3087C61.4768 41.7324 60.5569 42.6806 59.1833 42.6647L52.7442 42.6615C43.1103 42.6869 37.6621 37.087 37.6745 27.1683ZM115.375 8.2949H118.7C128.352 8.2949 133.757 13.8567 133.773 23.7944V40.629C133.757 42.0464 132.853 42.9659 131.473 42.9659C130.093 42.9659 129.167 42.0464 129.18 40.629L129.152 24.4064C129.17 16.3618 125.932 13.0386 118.024 13.0386H116.058C108.149 13.0386 104.883 16.3618 104.88 24.4064L104.893 40.6068C104.883 42.0464 103.985 42.9628 102.599 42.9628C101.213 42.9628 100.293 42.0432 100.306 40.6068L100.309 23.7944C100.29 13.8567 105.723 8.2949 115.375 8.2949ZM15.073 8.2949H18.3974C27.5745 8.2949 33.4548 13.3177 33.4487 22.7797C33.4548 32.1752 27.5714 37.2836 18.3974 37.2646L11.8071 37.2678C10.4119 37.2836 9.51363 36.3355 9.51363 34.9118C9.51363 33.488 10.4119 32.5684 11.8071 32.5557L17.7183 32.5716C25.1359 32.5716 28.8462 29.6892 28.8462 22.7829C28.8462 15.883 25.1359 13.0418 17.7183 13.0418H15.752C7.84367 13.0418 4.57784 16.3649 4.57476 24.4096L4.5871 40.6099C4.57784 42.0495 3.67959 42.9659 2.29361 42.9659C0.907641 42.9659 -0.0122244 42.0464 0.00012279 40.6099L0.00320936 23.7976C-0.0122246 13.8567 5.42054 8.2949 15.073 8.2949ZM153.429 8.2949H156.754C166.406 8.2949 171.827 13.8472 171.827 23.7944V31.8613C171.811 33.3041 170.916 34.2554 169.53 34.2554C168.144 34.2554 167.224 33.3041 167.237 31.8613L167.206 24.4064C167.224 16.3618 163.986 13.0386 156.078 13.0386H154.112C146.203 13.0386 142.934 16.3396 142.934 24.4064V26.5532C142.934 34.62 146.188 37.9685 154.112 37.9685H166.823C170.101 37.9685 171.24 38.8025 173 40.6068L174.062 41.6976C175.207 42.8803 175.312 44.3041 174.333 45.3093C173.358 46.3113 172.006 46.2669 170.678 44.8875L169.518 43.6984C168.95 43.1245 168.422 42.6837 166.996 42.6615L153.436 42.6647C143.802 42.6837 138.363 37.1124 138.363 27.1652V23.7944C138.36 13.8504 143.777 8.2949 153.429 8.2949ZM66.8231 24.4096V26.5563C66.8231 34.6232 70.0889 37.9717 78.0004 37.9717H79.9667C87.8751 37.9717 91.0946 34.6232 91.0946 26.5563V24.4096C91.0946 16.3427 87.8751 13.0418 79.9667 13.0418H78.0004C70.0889 13.0418 66.8231 16.3396 66.8231 24.4096ZM77.3182 8.2949H80.6427C90.2951 8.2949 95.7155 13.8472 95.7155 23.7944V27.1652C95.7155 37.1124 90.2982 42.6647 80.6427 42.6647H77.3182C67.6658 42.6647 62.2454 37.1124 62.2454 27.1652V23.7944C62.2485 13.8504 67.6658 8.2949 77.3182 8.2949Z" fill="#323232"></path> <path d="M235 38H229.294L223.819 29.6807L218.343 38H213L220.817 26.6611L213.495 16H219.003L224.082 23.9188L229.063 16H234.439L227.051 26.9076L235 38Z" fill="#323232"></path> <path fill-rule="evenodd" clip-rule="evenodd" d="M232.273 4.21875H215.398C207.477 4.21875 201.055 10.6407 201.055 18.5625V35.4375C201.055 43.3593 207.477 49.7813 215.398 49.7813H232.273C240.195 49.7813 246.617 43.3593 246.617 35.4375V18.5625C246.617 10.6407 240.195 4.21875 232.273 4.21875ZM215.398 0C205.147 0 196.836 8.31071 196.836 18.5625V35.4375C196.836 45.6893 205.147 54 215.398 54H232.273C242.525 54 250.836 45.6893 250.836 35.4375V18.5625C250.836 8.31071 242.525 0 232.273 0H215.398Z" fill="#323232"></path> </svg> 