<?xml version="1.0" encoding="UTF-8"?> <svg xmlns="http://www.w3.org/2000/svg" width="20" height="21" viewBox="0 0 20 21" fill="none"> <path fill-rule="evenodd" clip-rule="evenodd" d="M10.0015 0.0473633C7.28546 0.0473633 6.9446 0.0592394 5.87787 0.107783C4.81322 0.156537 4.08651 0.325089 3.45063 0.572396C2.79288 0.827828 2.23493 1.16952 1.67906 1.72559C1.12278 2.28146 0.781091 2.83941 0.524824 3.49695C0.276893 4.13304 0.108131 4.85996 0.0602121 5.92419C0.0125008 6.99092 0 7.33199 0 10.048C0 12.764 0.012084 13.1038 0.06042 14.1705C0.109382 15.2352 0.277934 15.9619 0.525033 16.5978C0.780674 17.2555 1.12236 17.8135 1.67844 18.3693C2.2341 18.9256 2.79205 19.2682 3.44938 19.5236C4.08567 19.7709 4.81259 19.9394 5.87703 19.9882C6.94377 20.0367 7.28442 20.0486 10.0002 20.0486C12.7164 20.0486 13.0562 20.0367 14.123 19.9882C15.1876 19.9394 15.9152 19.7709 16.5515 19.5236C17.209 19.2682 17.7661 18.9256 18.3218 18.3693C18.8781 17.8135 19.2197 17.2555 19.476 16.598C19.7219 15.9619 19.8906 15.235 19.9406 14.1707C19.9885 13.104 20.001 12.764 20.001 10.048C20.001 7.33199 19.9885 6.99113 19.9406 5.9244C19.8906 4.85975 19.7219 4.13304 19.476 3.49716C19.2197 2.83941 18.8781 2.28146 18.3218 1.72559C17.7655 1.16931 17.2092 0.827621 16.5508 0.572396C15.9133 0.325089 15.1862 0.156537 14.1215 0.107783C13.0548 0.0592394 12.7152 0.0473633 9.99833 0.0473633H10.0015ZM9.10432 1.84956C9.27847 1.84929 9.46581 1.84937 9.66798 1.84946H9.66814L10.0015 1.84956C12.6716 1.84956 12.9881 1.85914 14.0425 1.90706C15.0176 1.95165 15.5468 2.11458 15.8993 2.25146C16.366 2.43272 16.6988 2.6494 17.0486 2.99942C17.3986 3.34945 17.6153 3.6828 17.7969 4.1495C17.9338 4.5016 18.097 5.0308 18.1413 6.00586C18.1893 7.06009 18.1997 7.37678 18.1997 10.0457C18.1997 12.7146 18.1893 13.0313 18.1413 14.0855C18.0968 15.0606 17.9338 15.5898 17.7969 15.9419C17.6157 16.4086 17.3986 16.7409 17.0486 17.0907C16.6985 17.4407 16.3662 17.6574 15.8993 17.8387C15.5472 17.9762 15.0176 18.1387 14.0425 18.1833C12.9883 18.2312 12.6716 18.2416 10.0015 18.2416C7.33108 18.2416 7.01461 18.2312 5.96037 18.1833C4.98531 18.1383 4.45611 17.9754 4.10338 17.8385C3.63669 17.6572 3.30333 17.4405 2.95331 17.0905C2.60329 16.7405 2.38661 16.408 2.20493 15.9411C2.06805 15.589 1.90491 15.0598 1.86053 14.0847C1.81261 13.0305 1.80303 12.7138 1.80303 10.0432C1.80303 7.37261 1.81261 7.05759 1.86053 6.00336C1.90512 5.0283 2.06805 4.4991 2.20493 4.14658C2.38619 3.67988 2.60329 3.34653 2.95331 2.99651C3.30333 2.64648 3.63669 2.4298 4.10338 2.24813C4.4559 2.11062 4.98531 1.94811 5.96037 1.90331C6.88293 1.86164 7.24045 1.84914 9.10432 1.84706V1.84956ZM15.3397 3.51008C14.6772 3.51008 14.1396 4.04699 14.1396 4.70974C14.1396 5.37228 14.6772 5.90981 15.3397 5.90981C16.0023 5.90981 16.5398 5.37228 16.5398 4.70974C16.5398 4.0472 16.0023 3.50966 15.3397 3.50966V3.51008ZM4.86572 10.048C4.86572 7.21184 7.16513 4.91236 10.0013 4.91225C12.8375 4.91225 15.1364 7.21177 15.1364 10.048C15.1364 12.8842 12.8377 15.1827 10.0015 15.1827C7.16524 15.1827 4.86572 12.8842 4.86572 10.048ZM13.335 10.048C13.335 8.20683 11.8424 6.71445 10.0015 6.71445C8.1603 6.71445 6.66792 8.20683 6.66792 10.048C6.66792 11.8889 8.1603 13.3815 10.0015 13.3815C11.8424 13.3815 13.335 11.8889 13.335 10.048Z" fill="#2B2B2A"></path> </svg> 