<?xml version="1.0" encoding="UTF-8"?> <svg xmlns="http://www.w3.org/2000/svg" width="11" height="16" viewBox="0 0 11 16" fill="none"> <path fill-rule="evenodd" clip-rule="evenodd" d="M6.18043 15.0939C9.39348 10.8142 11 7.72594 11 5.82922C11 4.10879 10.4854 2.70715 9.45614 1.62429C8.4269 0.541429 7.10819 0 5.5 0C3.89181 0 2.5731 0.541429 1.54386 1.62429C0.51462 2.70715 0 4.10879 0 5.82922C0 7.72594 1.60652 10.8142 4.81957 15.0939C4.86381 15.1528 4.90836 15.212 4.95322 15.2713L5.5 16L6.04678 15.2713C6.09164 15.212 6.13619 15.1528 6.18043 15.0939ZM5.5 1.06667C4.17873 1.06667 3.16026 1.49757 2.35271 2.3472C1.54175 3.20039 1.1 4.32862 1.1 5.82922C1.1 6.5346 1.41648 7.61893 2.21874 9.14825C2.95132 10.5447 4.04 12.2222 5.5 14.1865C6.96 12.2222 8.04868 10.5447 8.78126 9.14825C9.58352 7.61893 9.9 6.5346 9.9 5.82922C9.9 4.32862 9.45825 3.20039 8.64729 2.3472C7.83974 1.49757 6.82127 1.06667 5.5 1.06667Z" fill="#323232"></path> <path d="M5.25315 3H5.7501C7.12191 3 8.00092 3.72435 8 5.0889C8.00092 6.44384 7.12145 7.18054 5.7501 7.17779L4.76496 7.17825C4.5564 7.18054 4.42212 7.04381 4.42212 6.83849C4.42212 6.63316 4.5564 6.50055 4.76496 6.49872L5.64859 6.50101C6.75739 6.50101 7.31202 6.08533 7.31202 5.08935C7.31202 4.09429 6.75739 3.68456 5.64859 3.68456H5.35466C4.17249 3.68456 3.68431 4.1638 3.68385 5.32394L3.68569 7.66023C3.68431 7.86784 3.55004 8 3.34286 8C3.13568 8 2.99817 7.86739 3.00002 7.66023L3.00048 5.23569C2.99817 3.80208 3.81028 3 5.25315 3Z" fill="#323232" stroke="#323232" stroke-width="0.25"></path> </svg> 