<?xml version="1.0" encoding="UTF-8"?> <svg xmlns="http://www.w3.org/2000/svg" width="80" height="17" viewBox="0 0 80 17" fill="none"> <path d="M17.2226 8.5753L17.2212 1.05401C17.217 0.422739 17.6361 0 18.2697 0C18.9032 0 19.3139 0.424158 19.3181 1.05401L19.3125 8.3001C19.3139 11.8919 20.7998 13.407 24.4221 13.407L27.0552 13.3999C27.6846 13.407 28.1037 13.8169 28.1037 14.4539C28.1037 15.0908 27.6832 15.515 27.0552 15.5079L24.1116 15.5065C19.7076 15.5178 17.217 13.0126 17.2226 8.5753ZM52.743 0.131931H54.2628C58.6753 0.131931 61.1462 2.62011 61.1532 7.06594V14.5972C61.1462 15.2313 60.7327 15.6427 60.1019 15.6427C59.4712 15.6427 59.0478 15.2313 59.0535 14.5972L59.0408 7.33972C59.0493 3.74079 57.569 2.25412 53.9537 2.25412H53.0549C49.4396 2.25412 47.9467 3.74079 47.9453 7.33972L47.9509 14.5872C47.9467 15.2313 47.536 15.6412 46.9024 15.6412C46.2689 15.6412 45.8483 15.2299 45.854 14.5872L45.8554 7.06594C45.8469 2.62011 48.3305 0.131931 52.743 0.131931ZM6.89049 0.131931H8.41026C12.6055 0.131931 15.2936 2.37896 15.2908 6.61199C15.2936 10.8152 12.6041 13.1006 8.41026 13.0921L5.39754 13.0935C4.75972 13.1006 4.34909 12.6764 4.34909 12.0395C4.34909 11.4025 4.75972 10.9911 5.39754 10.9855L8.09981 10.9926C11.4907 10.9926 13.1869 9.70307 13.1869 6.61341C13.1869 3.52659 11.4907 2.25554 8.09981 2.25554H7.20094C3.58568 2.25554 2.09273 3.74221 2.09132 7.34114L2.09696 14.5887C2.09273 15.2327 1.6821 15.6427 1.04851 15.6427C0.414922 15.6427 -0.0055883 15.2313 5.61325e-05 14.5887L0.00146714 7.06736C-0.0055884 2.62011 2.47796 0.131931 6.89049 0.131931ZM70.1391 0.131931H71.6589C76.0714 0.131931 78.5493 2.61586 78.5493 7.06594V10.6748C78.5423 11.3202 78.1331 11.7458 77.4995 11.7458C76.8659 11.7458 76.4454 11.3202 76.451 10.6748L76.4369 7.33972C76.4454 3.74079 74.9651 2.25412 71.3499 2.25412H70.451C66.8357 2.25412 65.3414 3.73086 65.3414 7.33972V8.3001C65.3414 11.909 66.8287 13.407 70.451 13.407H76.2619C77.7605 13.407 78.2812 13.7801 79.0856 14.5872L79.571 15.0752C80.0945 15.6044 80.1425 16.2413 79.6952 16.691C79.2493 17.1393 78.6312 17.1194 78.0244 16.5023L77.4938 15.9703C77.2342 15.7136 76.9929 15.5164 76.341 15.5065L70.142 15.5079C65.7379 15.5164 63.2515 13.024 63.2515 8.57388V7.06594C63.2501 2.61728 65.7266 0.131931 70.1391 0.131931ZM30.5477 7.34114V8.30152C30.5477 11.9104 32.0407 13.4084 35.6573 13.4084H36.5562C40.1715 13.4084 41.6432 11.9104 41.6432 8.30152V7.34114C41.6432 3.73228 40.1715 2.25554 36.5562 2.25554H35.6573C32.0407 2.25554 30.5477 3.73086 30.5477 7.34114ZM35.3455 0.131931H36.8652C41.2778 0.131931 43.7557 2.61586 43.7557 7.06594V8.57388C43.7557 13.024 41.2792 15.5079 36.8652 15.5079H35.3455C30.9329 15.5079 28.455 13.024 28.455 8.57388V7.06594C28.4564 2.61728 30.9329 0.131931 35.3455 0.131931Z" fill="#323232"></path> </svg> 