<svg width="1103" height="172" viewBox="0 0 1103 172" fill="none" xmlns="http://www.w3.org/2000/svg">
<path d="M154.391 86.7097V19.4321C154.318 13.7581 158.136 10 163.788 10C169.441 10 173.185 13.7581 173.185 19.4321L173.112 84.2779C173.112 116.406 186.473 129.965 218.923 129.965L242.562 129.891C248.215 129.965 251.959 133.649 251.959 139.323C251.959 144.997 248.215 148.829 242.562 148.755H216.206C176.636 148.829 154.318 126.428 154.391 86.7097ZM472.716 11.1053H486.371C525.941 11.1053 548.039 33.3592 548.112 73.151V140.576C548.039 146.25 544.368 149.934 538.715 149.934C533.062 149.934 529.245 146.25 529.318 140.576L529.172 75.6564C529.245 43.4546 515.957 30.1169 483.581 30.1169H475.506C443.13 30.1169 429.695 43.3809 429.695 75.6564L429.769 140.502C429.695 146.25 426.024 149.934 420.372 149.934C414.719 149.934 410.901 146.25 410.974 140.502V73.151C410.901 33.3592 433.146 11.1053 472.716 11.1053ZM61.7425 11.1053H75.3976C112.986 11.1053 137.066 31.2223 137.066 69.0981C137.066 106.679 112.986 127.165 75.3976 127.091H48.3811C42.6548 127.165 38.984 123.333 38.984 117.659C38.984 111.985 42.6548 108.3 48.3811 108.227L72.6078 108.3C103.001 108.3 118.198 96.7313 118.198 69.0981C118.198 41.4649 103.001 30.1169 72.6078 30.1169H64.5322C32.1565 30.1169 18.7217 43.3809 18.7217 75.6564L18.7951 140.502C18.7217 146.25 15.051 149.934 9.39808 149.934C3.74517 149.934 -0.0723737 146.25 0.00104061 140.502V73.151C-0.0723737 33.3592 22.1722 11.1053 61.7425 11.1053ZM628.648 11.1053H642.303C681.873 11.1053 704.045 33.3592 704.045 73.151V105.426C703.971 111.174 700.3 115.006 694.647 115.006C688.995 115.006 685.177 111.174 685.25 105.426L685.104 75.5827C685.177 43.3809 671.889 30.0432 639.513 30.0432H631.438C599.062 30.0432 585.627 43.2335 585.627 75.5827V84.2042C585.627 116.48 598.989 129.891 631.438 129.891H683.489C696.923 129.891 701.622 133.207 708.816 140.428L713.148 144.776C717.846 149.492 718.287 155.24 714.249 159.219C710.211 163.272 704.705 163.051 699.273 157.524L694.501 152.734C692.151 150.45 690.022 148.682 684.149 148.608H628.575C589.078 148.682 566.833 126.354 566.833 86.5623V73.0773C566.907 33.3592 589.078 11.1053 628.648 11.1053ZM273.763 75.6564V84.2779C273.763 116.553 287.124 129.965 319.574 129.965H327.649C360.025 129.965 373.24 116.553 373.24 84.2779V75.6564C373.24 43.3809 360.025 30.1169 327.649 30.1169H319.574C287.198 30.1169 273.763 43.3072 273.763 75.6564ZM316.784 11.1053H330.439C370.009 11.1053 392.18 33.3592 392.18 73.151V86.6359C392.18 126.428 370.009 148.682 330.439 148.682H316.784C277.214 148.682 255.042 126.428 255.042 86.6359V73.151C255.042 33.3592 277.287 11.1053 316.784 11.1053Z" fill="black"/>
<rect x="783" y="4" width="316" height="164" rx="46" stroke="black" stroke-width="8"/>
<path d="M877.198 121V103.736H838.822L836.742 97.808L877.926 47.68H885.102V96.872H896.438V103.736H885.102V121H877.198ZM846.622 96.872H877.198V59.328L846.622 96.872ZM961.427 111.328C955.742 118.608 948.323 122.248 939.171 122.248C930.019 122.248 922.6 118.643 916.915 111.432C911.299 104.152 908.491 95.208 908.491 84.6C908.491 74.1307 911.334 65.256 917.019 57.976C922.774 50.6267 930.227 46.952 939.379 46.952C948.531 46.952 955.915 50.592 961.531 57.872C967.147 65.0827 969.955 73.992 969.955 84.6C969.955 95.0693 967.112 103.979 961.427 111.328ZM923.259 105.92C927.419 111.813 932.792 114.76 939.379 114.76C945.966 114.76 951.27 111.848 955.291 106.024C959.382 100.131 961.427 92.9893 961.427 84.6C961.427 76.3493 959.347 69.2773 955.187 63.384C951.096 57.4213 945.758 54.44 939.171 54.44C932.584 54.44 927.246 57.3867 923.155 63.28C919.064 69.104 917.019 76.2107 917.019 84.6C917.019 92.8507 919.099 99.9573 923.259 105.92ZM1035.77 111.328C1030.09 118.608 1022.67 122.248 1013.51 122.248C1004.36 122.248 996.944 118.643 991.259 111.432C985.643 104.152 982.835 95.208 982.835 84.6C982.835 74.1307 985.677 65.256 991.363 57.976C997.117 50.6267 1004.57 46.952 1013.72 46.952C1022.87 46.952 1030.26 50.592 1035.87 57.872C1041.49 65.0827 1044.3 73.992 1044.3 84.6C1044.3 95.0693 1041.46 103.979 1035.77 111.328ZM997.603 105.92C1001.76 111.813 1007.14 114.76 1013.72 114.76C1020.31 114.76 1025.61 111.848 1029.63 106.024C1033.73 100.131 1035.77 92.9893 1035.77 84.6C1035.77 76.3493 1033.69 69.2773 1029.53 63.384C1025.44 57.4213 1020.1 54.44 1013.51 54.44C1006.93 54.44 1001.59 57.3867 997.499 63.28C993.408 69.104 991.363 76.2107 991.363 84.6C991.363 92.8507 993.443 99.9573 997.603 105.92Z" fill="black"/>
</svg>
